<svg xmlns="http://www.w3.org/2000/svg" width="60" height="40" viewBox="0 0 60 40"><path fill="#fff" d="M32.7 16.2c-.2.2-.3.5-.3.9 0 0-.6 1.3-2.4 1.3 0 0-8.2-1-11.5.4 0 0-1.8.1-3.6 1.3-.2-.7-.5-1.8.3-2.4 0 0-1.8.3-2.1 1.6v-.9s-1.5 2.4-.6 4.1c-.8 1.2-1.3 2.9-1.4 5 0 0-1.4 0-2.1-.7 0 0-.9-1-1.7.7l-1.7 3.7s-1.8.5-1.2 1.3c0 0-.9.4-1.3.3 0 0-1.3.8-.9 2 0 0 1.5 0 2.2-.4 0 0 1.3.3 2.4-2.8 0 0 .8-1.7 1.6-2.1.1 0 .1 0 .2-.1.8-.2.9-.1 2.3.7 0 0 1.2.4 1.4.4 0 0-.4 3.9-1.1 5.2 0 0-1.6.6-1.2 1.2 0 0-.8.5-1.5.4 0 0-1.5 1-.9 2.6 0 0 2.2-.2 3.1-1.1 0 0 1.2-.1 1.9-2.4 0 0 .8-3.4 1.7-4 0 0 7.1 3.1 9.5-2.3 0 0 2.4-.3 7.5.5 0 0 3.9 1 7.3-2.2 0 0 .6-.3 1.6.3 0 0 1.1 1 3.5-.2 0 0 1.4-.3 3-.4 0 .7 0 1.8-.1 2.3 0 0-.9 1.6 0 1.6 0 0-.1.7-.6.9 0 0-.2 1.7.7 2.2l.8-1.1.5-2.2s.3-1.2 0-2l-.4-1.8c1-.1 1.9-.1 2.4.1 0 0 1 .8 2 .7 0 0 2.2 1.4 2.2 1.9 0 0 .9 2 1.5 1.3 0 0 .3.3 0 .7 0 0 1 1.7 2.3 1l-.3-1.3s-1.7-2.4-2.6-2.8l-2.7-2.1s-1-.7-1.9-.7h-.3c-.9.1-3-.7-3-.7s-.1-1.7-.5-1.7c0 0-.7-.7-2.2-.5 0 0 0-1.4-.9-2.4 0 0 .5-.9-.1-1.9 0 0 .9.3 1.3-.3 0 0-.6-.5-.9-1.4 0 0 .3.6.9.5 0 0-.8-1-1.2-2.5 0 0-.8-2.3-3.8-4.2l.1.1s1.3.3 1.9-.7c0 0 .9-.3 1.6-.3 0 0 .5-.3.6-.7 0 0 .8-.5.2-1.4 0 0-.2-.5-1-.7h-.2c-1-.2-2.1-.7-3-.9 0 0-.5-.3-.9-.7 0 0-1.6-1.6-4.4-1.1 0 0-1.5 0-1.9.6 0 0-1.3-.3-3.2.8 0 0-.7.2-.6-.8 0 0-.8-.9-1.4.7 0 0-2.2.1-2.7-1.9 0 0-.5-1.9-.9-.3 0 0-1.9.3-2.4-2.2 0 0-.4-1.6-2.8-2 0 0-1.4-.7-.4.7 0 0 1.2.7 1.7 2.4 0 0 0 .7.6 1.3 0 0-.5.3.7.8 0 0 3.9 2.7 5.3 2.4-.3.6-.6 1.6 0 2.3 0 0-1.1.5-2.1.4 0 0-.6-.4-.4-1 0 0-.5-.8-1.2.8 0 0-2 .8-1.9-1.9 0 0 .5-1.8 1.1-2 0 0-.1-1.3-1.6.9 0 0-1.1.3-1.3 1 0 0-1.9-2.8-3.5-1.9 0 0-1.5-.7-.9.5 0 0 .8 1.5 2.2 1.3 0 0 .4.8.3 1.4 0 0-.3 2 1.9 1.9 0 0 2.1 1.4 3.6.8 0 0-1.4 1.6 2.3.2 0 0 5.4-2.1 6.5-2.9 0 0 .9-.3 1.1 0 0 0-1 1.4-1.6 1.7 0 0 1 1.2 2.4-.7 0 0-.3 2-.3 3.5m-5.2-4.7s-1-.2-.7-1.7c.5 0 1.3-.1 2.3-.4 0 .3 0 .8.3 1.2 0 .1-1.1.9-1.9.9zm3.8-1.7s-1.1.3-1.3-.5c.2-.1.4-.2.7-.3-.1 0 1.2-.4.6.8z"/></svg>