<svg xmlns="http://www.w3.org/2000/svg" width="64" height="64" viewBox="0 0 64 64"><path fill="#fff" d="M58.9 25c-1.4-1.4-7.7-3.7-11-4.7-1.3-.4-3.4-.8-5.8-1.1-.8-4-3.7-12.5-6.8-15.6-2.9-2.9-8.3-1.2-9.9.5-1.7 1.7-4 6.7-4.7 8.9-.3.9-.7 3.5-1.1 6.2-.2 0-.3 0-.5.1-4 .7-12.5 3.7-15.7 6.8-2.9 2.9-1.2 8.3.5 9.9 1.7 1.7 6.7 4 8.9 4.7l13.6 2.1v5.2l9.9-6.8-9.9-7.3v5.1s-9.3-1.1-13.6-2.6c-4.3-1.5-7.3-4-7.3-5.7 0-1.7 2.7-4.7 9.4-6.8 1.4-.4 2.8-.8 4.1-1-.3 2.1-.5 3.6-.5 3.6h-5.2l6.8 9.9 7.3-9.9h-5.2s.2-1.7.6-4c2.6-.2 5.6-.2 9.3-.2 2.2 0 4.5.1 6.6.3.2 2.7.2 5.7.2 9.6 0 7.8-1.4 15.5-2.6 18.8-1.2 3.3-3.3 6.8-5.7 6.8-2 0-4.3-3.6-5.4-6-1.1-2.4-1.9-7-1.9-7h-3.7v.5c0 2.5 1.9 7.6 3.1 9.9 1.2 2.3 5 6.8 8.3 6.8 1.7 0 3.7-1.6 5.2-3.1 1.4-1.4 3.7-7.7 4.7-11s2.2-12.4 2.1-16.2c0-2.6-.2-5.7-.5-8.6 3.6.5 6.6 1.2 8.3 1.8 3.3 1.2 6.8 3.3 6.8 5.7 0 2-3.6 4.3-6 5.4-2.4 1.1-7 1.9-7 1.9v3.7h.5c2.5 0 7.6-1.9 9.9-3.1 2.3-1.2 6.8-5 6.8-8.3.2-1.7-1.4-3.7-2.9-5.2zm-27.2-6.8c-2.5 0-5.3.2-8.2.4.4-2.1.9-4.2 1.4-5.7 1.5-4.3 4-7.3 5.7-7.3 1.7 0 4.7 2.7 6.8 9.4.4 1.2.7 2.4.9 3.6-2.5-.3-5-.5-6.6-.4z"/></svg>
