<svg xmlns="http://www.w3.org/2000/svg" width="64" height="64" viewBox="0 0 64 64"><path fill="#fff" d="M31.1 28.8l4.3 23.4c.2 1.2 1.7 1.8 2.7 1.1l5.9-4.1 8.4 12.1c.5.8 1.6 1 2.4.4l.8-.6.8-.6c.8-.5 1-1.6.4-2.4l-8.4-12.1 5.8-4.1c1-.7 1-2.3-.1-2.9l-20.4-12c-1.3-.7-2.8.4-2.6 1.8zM31.099 1.96l3.176.394-1.762 14.191-3.176-.394zM27.102 33.55l3.176.395-1.763 14.191-3.176-.395zM47.023 9.692l1.967 2.524-11.281 8.789-1.967-2.524zM21.908 29.157l1.967 2.524-11.281 8.789-1.967-2.524zM52.933 26.327l-.394 3.176-14.191-1.759.394-3.176zM21.305 22.403l-.394 3.176-14.191-1.762.394-3.176zM25.718 17.161l-2.524 1.967-8.789-11.281 2.524-1.967z"/></svg>