<svg xmlns="http://www.w3.org/2000/svg" width="64" height="64" viewBox="0 0 64 64"><path fill="#fff" d="M32 2c-16.6 0-30 13.4-30 30s13.4 30 30 30 30-13.4 30-30-13.4-30-30-30zm0 4.8c13.9 0 25.2 11.3 25.2 25.2 0 13.9-11.3 25.2-25.2 25.2-13.9 0-25.2-11.3-25.2-25.2 0-13.9 11.3-25.2 25.2-25.2zm4.9 5.2c-2.5 0-4.5 2-4.5 4.5s2 4.5 4.5 4.5 4.5-2 4.5-4.5-2-4.5-4.5-4.5zm-3.6 10.9c-3.7 0-7.3 2.4-10.6 7.2l1.1.5c1.4-1.8 2.5-3 3.6-3.7.4-.3.7-.4 1.1-.4.2 0 .4.1.6.3.2.2.3.4.3.5 0 .4-.2 1.1-.5 2.2l-2.7 7.9-3 8.5c-.4 1-.6 1.9-.6 2.6 0 1 .4 1.9 1.3 2.5.8.7 2 1 3.4 1 3.7 0 7.3-2.4 10.6-7.2l-1.1-.5c-1.4 1.8-2.5 3-3.6 3.7-.4.3-.7.4-1.1.4-.2 0-.4-.1-.6-.3-.2-.2-.3-.4-.3-.5 0-.4.2-1.1.5-2.2l2.7-7.9 3-8.5c.4-1 .6-1.9.6-2.6 0-1-.4-1.9-1.3-2.5-.9-.7-2-1-3.4-1z"/></svg>